<svg width="86" height="87" viewBox="0 0 86 87" fill="none" xmlns="http://www.w3.org/2000/svg">
<path d="M84.2249 36.0659C82.2882 34.7065 77.8501 34.1967 74.3806 34.8764C73.9774 31.478 72.1214 28.5047 68.8937 25.8709L67.038 24.5115L65.7466 26.4656C64.1331 29.0145 63.3262 32.5828 63.5681 35.9813C63.6487 37.1704 64.0522 39.2944 65.2626 41.1635C64.1331 41.8432 61.793 42.6928 58.7269 42.6928H0.387978L0.226728 43.3725C-0.338319 46.7706 -0.33832 57.3904 6.27831 65.5463C11.2811 71.7481 18.7046 74.8917 28.468 74.8917C49.6085 74.8917 65.2626 64.6114 72.6055 46.006C75.5103 46.0909 81.7235 46.006 84.8706 39.6339C84.9512 39.464 85.1124 39.1241 85.6771 37.8501L86 37.1704L84.2249 36.0659ZM47.0265 12.1079H38.1511V20.6037H47.0265V12.1079ZM47.0265 22.3029H38.1511V30.7986H47.0265V22.3025V22.3029ZM36.5369 22.3029H27.6614V30.7986H36.5369V22.3025V22.3029ZM26.0472 22.3029H17.1714V30.7986H26.0472V22.3025V22.3029ZM15.5576 32.4979H6.68177V40.9936H15.5572V32.4975L15.5576 32.4979ZM26.0472 32.4979H17.1714V40.9936H26.0472V32.4975V32.4979ZM36.5369 32.4979H27.6614V40.9936H36.5369V32.4975V32.4979ZM47.0269 32.4979H38.1507V40.9936H47.0269V32.4975V32.4979ZM57.5165 32.4979H48.6404V40.9936H57.5165V32.4975V32.4979Z" fill="#2396ED"/>
</svg>
