<svg width="65" height="65" viewBox="0 0 65 65" fill="none" xmlns="http://www.w3.org/2000/svg">
<path d="M8.88672 52.4658L9.28022 51.9148L27.8946 16.5949L27.9339 16.221L19.7283 0.807965C19.0408 -0.483153 17.1054 -0.156714 16.8798 1.28859L8.88672 52.4658Z" fill="#FFC24A"/>
<path d="M9.11877 52.0456L9.41644 51.4652L27.8358 16.5154L19.6507 1.03967C18.9704 -0.237922 17.243 0.0877614 17.0197 1.51792L9.11877 52.0456Z" fill="#FFA712"/>
<path d="M33.9158 27.8795L40.0255 21.6222L33.9141 9.95543C33.3339 8.85109 31.7141 8.8479 31.1401 9.95543L27.875 16.1826V16.7129L33.9158 27.8795Z" fill="#F4BD62"/>
<path d="M33.8069 27.6188L39.7466 21.5356L33.8069 10.2253C33.2429 9.15165 31.8727 9.03916 31.3146 10.1159L28.0322 16.4395L27.9341 16.7628L33.8069 27.6188Z" fill="#FFA50E"/>
<path d="M8.88672 52.4658L9.06508 52.2865L9.71315 52.0231L33.532 28.2928L33.8338 27.4713L27.8919 16.1487L8.88672 52.4658Z" fill="#F6820C"/>
<path d="M34.6787 64.4337L56.2353 52.4114L50.0795 14.4995C49.8869 13.3134 48.4317 12.8444 47.5827 13.6949L8.88672 52.4659L30.3197 64.4326C31.6742 65.1889 33.3239 65.1892 34.6787 64.4337Z" fill="#FDE068"/>
<path d="M56.0421 52.3105L49.933 14.6865C49.742 13.5093 48.5318 13.0222 47.6893 13.8663L9.12573 52.3922L30.3233 64.2405C31.6675 64.991 33.3046 64.9914 34.6492 64.2415L56.0421 52.3105Z" fill="#FCCA3F"/>
<path d="M34.6787 64.0793C33.3239 64.8349 31.6742 64.8346 30.3197 64.0783L9.05935 52.2835L8.88672 52.4658L30.3197 64.4324C31.6742 65.1887 33.3239 65.1891 34.6787 64.4335L56.2353 52.4112L56.1825 52.0864L34.6787 64.0793Z" fill="#EEAB37"/>
</svg>
